/vscmnt/brussel_pixiu_data/_data_brussel/112/vsc11236/PredSimResults/SUBJ07opt3D/SUBJ07opt3D_12156185.mot
version=1
nRows=7
nColumns=50
inDegrees=yes
endheader
                time	         pelvis_tilt	         pelvis_list	     pelvis_rotation	           pelvis_tx	           pelvis_ty	           pelvis_tz	       hip_flexion_r	     hip_adduction_r	      hip_rotation_r	        knee_angle_r	       ankle_angle_r	         mtp_angle_r	       hip_flexion_l	     hip_adduction_l	      hip_rotation_l	        knee_angle_l	       ankle_angle_l	         mtp_angle_l	    lumbar_extension	      lumbar_bending	     lumbar_rotation	 ercspn_r/activation	 intobl_r/activation	 extobl_r/activation	    abd_r/activation	    add_r/activation	hamstrings_r/activation	bifemsh_r/activation	glut_max_r/activation	iliopsoas_r/activation	rect_fem_r/activation	  vasti_r/activation	gastroc_r/activation	 soleus_r/activation	tib_ant_r/activation	 ercspn_l/activation	 intobl_l/activation	 extobl_l/activation	    abd_l/activation	    add_l/activation	hamstrings_l/activation	bifemsh_l/activation	glut_max_l/activation	iliopsoas_l/activation	rect_fem_l/activation	  vasti_l/activation	gastroc_l/activation	 soleus_l/activation	tib_ant_l/activation	
          1.10638564	         -4.05840316	         -0.28305567	          8.18709883	          1.34979048	          0.84932188	         -0.01265515	         29.84370710	         -2.18367797	         -4.29076252	         -6.74356208	          2.05196930	          0.27019969	        -14.56360124	         -0.21918176	          3.52464123	         -9.21284092	          7.86341100	         28.35411478	        -10.71452842	         -1.44875746	         -1.34912555	          0.12170067	          0.12921531	          0.01000000	          0.01071910	          0.13650932	          0.06603224	          0.10925427	          0.08450150	          0.03190949	          0.01184396	          0.00999999	          0.00999999	          0.00999999	          0.39696539	          0.12375978	          0.00999999	          0.00999999	          0.03220855	          0.01033022	          0.01664286	          0.13529245	          0.01661471	          0.12294925	          0.01184397	          0.01075359	          0.13681042	          0.29563004	          0.01701710	
          1.11744949	         -4.06473831	         -0.26271765	          8.21922741	          1.36556487	          0.84783824	         -0.01229074	         29.60746720	         -1.96987586	         -4.00723565	         -8.18255554	          1.70531340	          0.25289172	        -15.03438104	         -0.32602501	          3.20245226	        -10.22546238	          6.88505568	         29.88604271	        -10.60903948	         -1.04804030	         -1.55108402	          0.10275322	          0.11827851	          0.00999999	          0.01000000	          0.11525633	          0.06413035	          0.12372569	          0.12741820	          0.02694153	          0.01000000	          0.00999999	          0.01402798	          0.01184397	          0.43431408	          0.13339863	          0.00999999	          0.01000000	          0.02719404	          0.02720081	          0.01405185	          0.11422891	          0.01402798	          0.10380749	          0.01000000	          0.00999999	          0.11551055	          0.27703368	          0.01436773	
          1.12851335	         -4.06410605	         -0.23360613	          8.20284491	          1.38148980	          0.84655584	         -0.01183942	         29.29601388	         -1.81171125	         -3.73919128	         -9.53347499	          1.26765246	          0.24793736	        -15.36136138	         -0.41124767	          2.83905616	        -11.51779215	          5.80189863	         31.34927270	        -10.50066314	         -0.65671660	         -1.74517162	          0.13476136	          0.09986386	          0.00999999	          0.09456246	          0.13424566	          0.06042817	          0.11007369	          0.12269672	          0.02274704	          0.00999999	          0.00999999	          0.01184398	          0.00999999	          0.50796682	          0.14654812	          0.00999999	          0.00999999	          0.02296023	          0.02296595	          0.01186430	          0.09644474	          0.01184398	          0.08764583	          0.01000002	          0.01000000	          0.09752683	          0.25432759	          0.01213083	
          1.13957721	         -4.05806612	         -0.18187555	          8.14193439	          1.39737505	          0.84563345	         -0.01129284	         28.99271300	         -1.67505046	         -3.52096515	        -10.88557185	          0.79696713	          0.22837428	        -15.46184761	         -0.46020138	          2.44900356	        -13.20525129	          4.59485522	         32.68521939	        -10.41023508	         -0.28991183	         -1.92985618	          0.14785550	          0.08431616	          0.00999999	          0.14372946	          0.16011968	          0.05448685	          0.09293644	          0.15046061	          0.01920557	          0.00999999	          0.00999999	          0.01000000	          0.00999999	          0.53646405	          0.18341524	          0.00999999	          0.00999999	          0.01938557	          0.03109375	          0.01141473	          0.08142936	          0.01000001	          0.07400036	          0.01000003	          0.01000001	          0.08234298	          0.22371328	          0.01024220	
          1.15064106	         -4.04676151	         -0.11540629	          8.04157970	          1.41307858	          0.84521630	         -0.01066383	         28.75640793	         -1.54859052	         -3.33552979	        -12.38900525	          0.58449970	          0.20685419	        -15.25998777	         -0.48093473	          2.03489319	        -15.39642654	          3.27836401	         33.75003278	        -10.34593572	          0.06047979	         -2.10295687	          0.15610687	          0.07118907	          0.00999999	          0.18636396	          0.18734843	          0.04836193	          0.07846727	          0.17688128	          0.01621548	          0.00999999	          0.01926972	          0.00999999	          0.00999999	          0.53058963	          0.22579849	          0.00999999	          0.00999999	          0.01636745	          0.05043143	          0.01248345	          0.06875171	          0.00999999	          0.06247932	          0.01000000	          0.00999999	          0.06952309	          0.18888360	          0.00999999	
          1.16170492	         -4.03111402	         -0.03807629	          7.90253584	          1.42848801	          0.84544199	         -0.00996518	         28.58611536	         -1.43041024	         -3.18327768	        -14.03317243	          0.70120708	          0.18583072	        -14.68463780	         -0.47785353	          1.58644372	        -18.19000307	          1.86665657	         34.33150668	        -10.31159385	          0.39593261	         -2.26167960	          0.16627074	          0.06010572	          0.00999999	          0.20732498	          0.21351432	          0.04607064	          0.06625078	          0.18983508	          0.01369091	          0.01000000	          0.03922245	          0.00999999	          0.00999999	          0.49828605	          0.25153241	          0.00999999	          0.00999999	          0.01381922	          0.08314005	          0.01328662	          0.05804783	          0.00999999	          0.05275199	          0.01000000	          0.00999999	          0.05869912	          0.15947651	          0.00999999	
          1.17276878	         -4.01211597	          0.05028731	          7.72524557	          1.44358759	          0.84634757	         -0.00921880	         28.40604095	         -1.31650042	         -3.05254043	        -15.67056420	          1.12705126	          0.17643130	        -13.69595099	         -0.45576723	          1.10416684	        -21.62981781	          0.31950765	         34.27039751	        -10.29951298	          0.71499722	         -2.40254797	          0.16745864	          0.05074792	          0.00999999	          0.21384154	          0.22719296	          0.04448167	          0.05593627	          0.19428250	          0.01155939	          0.00999999	          0.05722027	          0.00999999	          0.00999999	          0.43223535	          0.26163750	          0.00999999	          0.00999999	          0.01166772	          0.11229493	          0.01376517	          0.04901043	          0.00999999	          0.04453909	          0.01000000	          0.00999999	          0.04956031	          0.13464778	          0.00999999	
